<svg width="25" height="24" viewBox="0 0 25 24" fill="none" xmlns="http://www.w3.org/2000/svg">
<path d="M7.53184 13.5L3.8252 16.5V4.5C3.8252 4.30109 3.90412 4.11032 4.04461 3.96967C4.1851 3.82902 4.37565 3.75 4.57434 3.75H16.5606C16.7593 3.75 16.9498 3.82902 17.0903 3.96967C17.2308 4.11032 17.3097 4.30109 17.3097 4.5V12.75C17.3097 12.9489 17.2308 13.1397 17.0903 13.2803C16.9498 13.421 16.7593 13.5 16.5606 13.5H7.53184Z" stroke="#FF9F0D" stroke-width="1.5" stroke-linecap="round" stroke-linejoin="round"/>
<path d="M8.31934 13.5V17.25C8.31934 17.4489 8.39826 17.6397 8.53875 17.7803C8.67925 17.921 8.86979 18 9.06848 18H18.0972L21.8039 21V9C21.8039 8.80109 21.7249 8.61032 21.5845 8.46967C21.444 8.32902 21.2534 8.25 21.0547 8.25H17.309" stroke="#FF9F0D" stroke-width="1.5" stroke-linecap="round" stroke-linejoin="round"/>
</svg>
