<svg width="36" height="36" viewBox="0 0 36 36" fill="none" xmlns="http://www.w3.org/2000/svg">
<path d="M0 2C0 0.895431 0.89543 0 2 0H34C35.1046 0 36 0.895431 36 2V34C36 35.1046 35.1046 36 34 36H2C0.895431 36 0 35.1046 0 34V2Z" fill="white"/>
<path d="M25.5 18C25.5 13.7188 22.0312 10.25 17.75 10.25C13.4688 10.25 10 13.7188 10 18C10 21.3125 12.0312 24.0938 14.9062 25.2188C14.8438 24.625 14.7812 23.6875 14.9375 23C15.0938 22.4062 15.8438 19.1562 15.8438 19.1562C15.8438 19.1562 15.625 18.6875 15.625 18C15.625 16.9375 16.25 16.125 17.0312 16.125C17.6875 16.125 18 16.625 18 17.2188C18 17.875 17.5625 18.875 17.3438 19.8125C17.1875 20.5625 17.75 21.1875 18.5 21.1875C19.875 21.1875 20.9375 19.75 20.9375 17.6562C20.9375 15.7812 19.5938 14.5 17.7188 14.5C15.5 14.5 14.2188 16.1562 14.2188 17.8438C14.2188 18.5312 14.4688 19.25 14.7812 19.625C14.8438 19.6875 14.8438 19.7812 14.8438 19.8438C14.7812 20.0938 14.625 20.625 14.625 20.7188C14.5938 20.875 14.5 20.9062 14.3438 20.8438C13.375 20.375 12.7812 18.9688 12.7812 17.8125C12.7812 15.375 14.5625 13.125 17.9062 13.125C20.5938 13.125 22.6875 15.0625 22.6875 17.625C22.6875 20.2812 21 22.4375 18.6562 22.4375C17.875 22.4375 17.125 22.0312 16.875 21.5312C16.875 21.5312 16.5 23.0312 16.4062 23.375C16.2188 24.0625 15.75 24.9062 15.4375 25.4062C16.1562 25.6562 16.9375 25.75 17.75 25.75C22.0312 25.75 25.5 22.2812 25.5 18Z" fill="#1E1E1E"/>
</svg>
