<svg width="155" height="60" viewBox="0 0 155 60" fill="none" xmlns="http://www.w3.org/2000/svg">
<path d="M73.0114 36V24.3636H77.6023C78.4848 24.3636 79.2367 24.5322 79.858 24.8693C80.4792 25.2027 80.9527 25.6667 81.2784 26.2614C81.608 26.8523 81.7727 27.5341 81.7727 28.3068C81.7727 29.0795 81.6061 29.7614 81.2727 30.3523C80.9394 30.9432 80.4564 31.4034 79.8239 31.733C79.1951 32.0625 78.4337 32.2273 77.5398 32.2273H74.6136V30.2557H77.142C77.6155 30.2557 78.0057 30.1742 78.3125 30.0114C78.6231 29.8447 78.8542 29.6155 79.0057 29.3239C79.161 29.0284 79.2386 28.6894 79.2386 28.3068C79.2386 27.9205 79.161 27.5833 79.0057 27.2955C78.8542 27.0038 78.6231 26.7784 78.3125 26.6193C78.0019 26.4564 77.608 26.375 77.1307 26.375H75.4716V36H73.0114ZM85.7457 24.3636V36H83.3253V24.3636H85.7457ZM90.1733 36.1648C89.6165 36.1648 89.1203 36.0682 88.6847 35.875C88.2491 35.678 87.9044 35.3883 87.6506 35.0057C87.4006 34.6193 87.2756 34.1383 87.2756 33.5625C87.2756 33.0777 87.3646 32.6705 87.5426 32.3409C87.7206 32.0114 87.9631 31.7462 88.2699 31.5455C88.5767 31.3447 88.9252 31.1932 89.3153 31.0909C89.7093 30.9886 90.1222 30.9167 90.554 30.875C91.0616 30.822 91.4706 30.7727 91.7812 30.7273C92.0919 30.678 92.3172 30.6061 92.4574 30.5114C92.5975 30.4167 92.6676 30.2765 92.6676 30.0909V30.0568C92.6676 29.697 92.554 29.4186 92.3267 29.2216C92.1032 29.0246 91.785 28.9261 91.3722 28.9261C90.9366 28.9261 90.59 29.0227 90.3324 29.2159C90.0748 29.4053 89.9044 29.6439 89.821 29.9318L87.5824 29.75C87.696 29.2197 87.9195 28.7614 88.2528 28.375C88.5862 27.9848 89.0161 27.6856 89.5426 27.4773C90.0729 27.2652 90.6866 27.1591 91.3835 27.1591C91.8684 27.1591 92.3324 27.2159 92.7756 27.3295C93.2225 27.4432 93.6184 27.6193 93.9631 27.858C94.3116 28.0966 94.5862 28.4034 94.7869 28.7784C94.9877 29.1496 95.0881 29.5947 95.0881 30.1136V36H92.7926V34.7898H92.7244C92.5843 35.0625 92.3968 35.303 92.1619 35.5114C91.9271 35.7159 91.6449 35.8769 91.3153 35.9943C90.9858 36.108 90.6051 36.1648 90.1733 36.1648ZM90.8665 34.4943C91.2225 34.4943 91.5369 34.4242 91.8097 34.2841C92.0824 34.1402 92.2964 33.947 92.4517 33.7045C92.607 33.4621 92.6847 33.1875 92.6847 32.8807V31.9545C92.6089 32.0038 92.5047 32.0492 92.3722 32.0909C92.2434 32.1288 92.0975 32.1648 91.9347 32.1989C91.7718 32.2292 91.6089 32.2576 91.446 32.2841C91.2831 32.3068 91.1354 32.3277 91.0028 32.3466C90.7188 32.3883 90.4706 32.4545 90.2585 32.5455C90.0464 32.6364 89.8816 32.7595 89.7642 32.9148C89.6468 33.0663 89.5881 33.2557 89.5881 33.483C89.5881 33.8125 89.7074 34.0644 89.946 34.2386C90.1884 34.4091 90.4953 34.4943 90.8665 34.4943ZM98.1477 39.2727C97.8409 39.2727 97.553 39.2481 97.2841 39.1989C97.0189 39.1534 96.7992 39.0947 96.625 39.0227L97.1705 37.2159C97.4545 37.303 97.7102 37.3504 97.9375 37.358C98.1686 37.3655 98.3674 37.3125 98.5341 37.1989C98.7045 37.0852 98.8428 36.892 98.9489 36.6193L99.0909 36.25L95.9602 27.2727H98.5057L100.312 33.6818H100.403L102.227 27.2727H104.79L101.398 36.9432C101.235 37.4129 101.013 37.822 100.733 38.1705C100.456 38.5227 100.106 38.7936 99.6818 38.983C99.2576 39.1761 98.7462 39.2727 98.1477 39.2727ZM111.879 24.3636L114.692 33.2045H114.8L117.618 24.3636H120.345L116.334 36H113.163L109.146 24.3636H111.879ZM121.7 36V27.2727H124.121V36H121.7ZM122.916 26.1477C122.556 26.1477 122.248 26.0284 121.99 25.7898C121.736 25.5473 121.609 25.2576 121.609 24.9205C121.609 24.5871 121.736 24.3011 121.99 24.0625C122.248 23.8201 122.556 23.6989 122.916 23.6989C123.276 23.6989 123.583 23.8201 123.837 24.0625C124.094 24.3011 124.223 24.5871 124.223 24.9205C124.223 25.2576 124.094 25.5473 123.837 25.7898C123.583 26.0284 123.276 26.1477 122.916 26.1477ZM129.276 36.142C128.613 36.142 128.012 35.9716 127.474 35.6307C126.94 35.286 126.516 34.7803 126.202 34.1136C125.891 33.4432 125.736 32.6212 125.736 31.6477C125.736 30.6477 125.897 29.8163 126.219 29.1534C126.541 28.4867 126.969 27.9886 127.503 27.6591C128.041 27.3258 128.63 27.1591 129.27 27.1591C129.759 27.1591 130.166 27.2424 130.491 27.4091C130.821 27.572 131.086 27.7765 131.287 28.0227C131.491 28.2652 131.647 28.5038 131.753 28.7386H131.827V24.3636H134.241V36H131.855V34.6023H131.753C131.639 34.8447 131.478 35.0852 131.27 35.3239C131.065 35.5587 130.798 35.7538 130.469 35.9091C130.143 36.0644 129.745 36.142 129.276 36.142ZM130.043 34.2159C130.433 34.2159 130.762 34.1098 131.031 33.8977C131.304 33.6818 131.512 33.3807 131.656 32.9943C131.804 32.608 131.878 32.1553 131.878 31.6364C131.878 31.1174 131.806 30.6667 131.662 30.2841C131.518 29.9015 131.31 29.6061 131.037 29.3977C130.764 29.1894 130.433 29.0852 130.043 29.0852C129.645 29.0852 129.31 29.1932 129.037 29.4091C128.764 29.625 128.558 29.9242 128.418 30.3068C128.277 30.6894 128.207 31.1326 128.207 31.6364C128.207 32.1439 128.277 32.5928 128.418 32.983C128.562 33.3693 128.768 33.6723 129.037 33.892C129.31 34.108 129.645 34.2159 130.043 34.2159ZM140.209 36.1705C139.311 36.1705 138.538 35.9886 137.891 35.625C137.247 35.2576 136.75 34.7386 136.402 34.0682C136.054 33.3939 135.879 32.5966 135.879 31.6761C135.879 30.7784 136.054 29.9905 136.402 29.3125C136.75 28.6345 137.241 28.1061 137.874 27.7273C138.51 27.3485 139.256 27.1591 140.112 27.1591C140.688 27.1591 141.224 27.2519 141.72 27.4375C142.22 27.6193 142.656 27.8939 143.027 28.2614C143.402 28.6288 143.694 29.0909 143.902 29.6477C144.11 30.2008 144.214 30.8485 144.214 31.5909V32.2557H136.845V30.7557H141.936C141.936 30.4072 141.86 30.0985 141.709 29.8295C141.557 29.5606 141.347 29.3504 141.078 29.1989C140.813 29.0436 140.504 28.9659 140.152 28.9659C139.785 28.9659 139.459 29.0511 139.175 29.2216C138.894 29.3883 138.675 29.6136 138.516 29.8977C138.357 30.178 138.275 30.4905 138.271 30.8352V32.2614C138.271 32.6932 138.351 33.0663 138.51 33.3807C138.673 33.6951 138.902 33.9375 139.197 34.108C139.493 34.2784 139.843 34.3636 140.249 34.3636C140.518 34.3636 140.764 34.3258 140.987 34.25C141.211 34.1742 141.402 34.0606 141.561 33.9091C141.72 33.7576 141.841 33.572 141.925 33.3523L144.163 33.5C144.05 34.0379 143.817 34.5076 143.464 34.9091C143.116 35.3068 142.665 35.6174 142.112 35.8409C141.563 36.0606 140.929 36.1705 140.209 36.1705ZM149.737 36.1705C148.855 36.1705 148.091 35.983 147.447 35.608C146.807 35.2292 146.313 34.7027 145.964 34.0284C145.616 33.3504 145.442 32.5644 145.442 31.6705C145.442 30.7689 145.616 29.9811 145.964 29.3068C146.313 28.6288 146.807 28.1023 147.447 27.7273C148.091 27.3485 148.855 27.1591 149.737 27.1591C150.62 27.1591 151.381 27.3485 152.021 27.7273C152.665 28.1023 153.161 28.6288 153.51 29.3068C153.858 29.9811 154.033 30.7689 154.033 31.6705C154.033 32.5644 153.858 33.3504 153.51 34.0284C153.161 34.7027 152.665 35.2292 152.021 35.608C151.381 35.983 150.62 36.1705 149.737 36.1705ZM149.749 34.2955C150.15 34.2955 150.485 34.1818 150.754 33.9545C151.023 33.7235 151.226 33.4091 151.362 33.0114C151.502 32.6136 151.572 32.161 151.572 31.6534C151.572 31.1458 151.502 30.6932 151.362 30.2955C151.226 29.8977 151.023 29.5833 150.754 29.3523C150.485 29.1212 150.15 29.0057 149.749 29.0057C149.343 29.0057 149.002 29.1212 148.726 29.3523C148.453 29.5833 148.247 29.8977 148.107 30.2955C147.97 30.6932 147.902 31.1458 147.902 31.6534C147.902 32.161 147.97 32.6136 148.107 33.0114C148.247 33.4091 148.453 33.7235 148.726 33.9545C149.002 34.1818 149.343 34.2955 149.749 34.2955Z" fill="white"/>
<circle cx="30" cy="30" r="30" fill="#FF9F0D"/>
<path d="M39.3889 29.36L25.8911 21.111C25.7774 21.0415 25.6473 21.0036 25.514 21.0011C25.3808 20.9986 25.2493 21.0317 25.1331 21.0968C25.0169 21.162 24.9202 21.257 24.8528 21.3719C24.7855 21.4869 24.75 21.6177 24.75 21.751V38.2488C24.75 38.3821 24.7855 38.5129 24.8528 38.6279C24.9202 38.7429 25.0169 38.8378 25.1331 38.903C25.2493 38.9682 25.3808 39.0012 25.514 38.9987C25.6473 38.9962 25.7774 38.9583 25.8911 38.8888L39.3889 30.6399C39.4985 30.5729 39.5891 30.4788 39.652 30.3668C39.7148 30.2547 39.7478 30.1284 39.7478 29.9999C39.7478 29.8714 39.7148 29.7451 39.652 29.633C39.5891 29.521 39.4985 29.427 39.3889 29.36Z" stroke="white" stroke-width="1.5" stroke-linecap="round" stroke-linejoin="round"/>
</svg>
