<svg width="36" height="36" viewBox="0 0 36 36" fill="none" xmlns="http://www.w3.org/2000/svg">
<path d="M0 2C0 0.895431 0.89543 0 2 0H34C35.1046 0 36 0.895431 36 2V34C36 35.1046 35.1046 36 34 36H2C0.895431 36 0 35.1046 0 34V2Z" fill="white"/>
<path d="M18 14.4062C16 14.4062 14.4062 16.0312 14.4062 18C14.4062 20 16 21.5938 18 21.5938C19.9688 21.5938 21.5938 20 21.5938 18C21.5938 16.0312 19.9688 14.4062 18 14.4062ZM18 20.3438C16.7188 20.3438 15.6562 19.3125 15.6562 18C15.6562 16.7188 16.6875 15.6875 18 15.6875C19.2812 15.6875 20.3125 16.7188 20.3125 18C20.3125 19.3125 19.2812 20.3438 18 20.3438ZM22.5625 14.2812C22.5625 13.8125 22.1875 13.4375 21.7188 13.4375C21.25 13.4375 20.875 13.8125 20.875 14.2812C20.875 14.75 21.25 15.125 21.7188 15.125C22.1875 15.125 22.5625 14.75 22.5625 14.2812ZM24.9375 15.125C24.875 14 24.625 13 23.8125 12.1875C23 11.375 22 11.125 20.875 11.0625C19.7188 11 16.25 11 15.0938 11.0625C13.9688 11.125 13 11.375 12.1562 12.1875C11.3438 13 11.0938 14 11.0312 15.125C10.9688 16.2812 10.9688 19.75 11.0312 20.9062C11.0938 22.0312 11.3438 23 12.1562 23.8438C13 24.6562 13.9688 24.9062 15.0938 24.9688C16.25 25.0312 19.7188 25.0312 20.875 24.9688C22 24.9062 23 24.6562 23.8125 23.8438C24.625 23 24.875 22.0312 24.9375 20.9062C25 19.75 25 16.2812 24.9375 15.125ZM23.4375 22.125C23.2188 22.75 22.7188 23.2188 22.125 23.4688C21.1875 23.8438 19 23.75 18 23.75C16.9688 23.75 14.7812 23.8438 13.875 23.4688C13.25 23.2188 12.7812 22.75 12.5312 22.125C12.1562 21.2188 12.25 19.0312 12.25 18C12.25 17 12.1562 14.8125 12.5312 13.875C12.7812 13.2812 13.25 12.8125 13.875 12.5625C14.7812 12.1875 16.9688 12.2812 18 12.2812C19 12.2812 21.1875 12.1875 22.125 12.5625C22.7188 12.7812 23.1875 13.2812 23.4375 13.875C23.8125 14.8125 23.7188 17 23.7188 18C23.7188 19.0312 23.8125 21.2188 23.4375 22.125Z" fill="#1E1E1E"/>
</svg>
